<svg width="26" height="26" viewBox="0 0 26 26" fill="none" xmlns="http://www.w3.org/2000/svg">
<g clip-path="url(#clip0_59_975)">
<path d="M22.0476 20.5636H21.3333V10.5182C21.3333 6.34932 18.2292 2.90432 14.1905 2.33114V1.18182C14.1905 0.528864 13.6577 0 13 0C12.3423 0 11.8095 0.528864 11.8095 1.18182V2.33114C7.77083 2.90432 4.66667 6.34932 4.66667 10.5182V20.5636H3.95238C3.4256 20.5636 3 20.9861 3 21.5091V22.4545C3 22.5845 3.10714 22.6909 3.2381 22.6909H9.66667C9.66667 24.5168 11.1607 26 13 26C14.8393 26 16.3333 24.5168 16.3333 22.6909H22.7619C22.8929 22.6909 23 22.5845 23 22.4545V21.5091C23 20.9861 22.5744 20.5636 22.0476 20.5636ZM13 24.1091C12.2113 24.1091 11.5714 23.4739 11.5714 22.6909H14.4286C14.4286 23.4739 13.7887 24.1091 13 24.1091ZM6.80952 20.5636V10.5182C6.80952 8.87545 7.45238 7.33318 8.62202 6.17205C9.79167 5.01091 11.3452 4.37273 13 4.37273C14.6548 4.37273 16.2083 5.01091 17.378 6.17205C18.5476 7.33318 19.1905 8.87545 19.1905 10.5182V20.5636H6.80952Z" fill="#3F3F3F" fill-opacity="0.65"/>
</g>
<defs>
<clipPath id="clip0_59_975">
<rect width="26" height="26" fill="white"/>
</clipPath>
</defs>
</svg>
