<svg width="26" height="26" viewBox="0 0 26 26" fill="none" xmlns="http://www.w3.org/2000/svg">
<path d="M4.74696 0C2.11708 0 -0.000488281 2.11757 -0.000488281 4.74743V21.2525C-0.000488281 23.8824 2.11708 26 4.74696 26H13.6926V15.8356H11.0048V12.1761H13.6926V9.04962C13.6926 6.59327 15.2806 4.33793 18.9389 4.33793C20.4201 4.33793 21.5153 4.48013 21.5153 4.48013L21.4292 7.89751C21.4292 7.89751 20.3122 7.88695 19.0933 7.88695C17.774 7.88695 17.5625 8.49478 17.5625 9.50384V12.1761H21.534L21.361 15.8356H17.5625V26H21.2521C23.8819 26 25.9995 23.8824 25.9995 21.2526V4.74746C25.9995 2.11759 23.8819 2.59999e-05 21.2521 2.59999e-05H4.74693L4.74696 0Z" fill="#1FBCC1"/>
</svg>
