<svg width="22" height="16" viewBox="0 0 22 16" fill="none" xmlns="http://www.w3.org/2000/svg">
<path d="M19.4337 12.5045L19.4338 12.5046C19.7128 12.7646 19.7265 13.1995 19.4645 13.4763L19.4644 13.4763C19.3276 13.6208 19.1429 13.6928 18.9586 13.6928C18.7889 13.6928 18.6185 13.6312 18.4845 13.5066L19.4337 12.5045ZM19.4337 12.5045L14.6746 8.08673M19.4337 12.5045L14.6746 8.08673M14.6746 8.08673L19.4424 3.48664L19.4424 3.48662C19.7172 3.22134 19.7228 2.78583 19.4552 2.51421L19.455 2.51401C19.1875 2.244 18.7489 2.23768 18.475 2.50251L11.1441 9.57346L14.6746 8.08673ZM21.9 1.69461V1.69467V14.305C21.9 15.1807 21.1751 15.9 20.2866 15.9H1.71341C0.82559 15.9 0.1 15.1807 0.1 14.305V1.69515C0.1 0.818962 0.825202 0.100142 1.71341 0.100142H20.2871C21.1751 0.100142 21.9005 0.818856 21.9 1.69461ZM13.6789 9.04647L18.4844 13.5064L3.52533 13.4976L3.52538 13.4976C3.52545 13.4975 3.52552 13.4974 3.52559 13.4974L8.33981 8.8536L10.6787 11.0251C10.8125 11.1495 10.9835 11.211 11.1532 11.211C11.3271 11.211 11.5022 11.1463 11.6366 11.0159C11.6367 11.0159 11.6367 11.0158 11.6367 11.0158L13.6789 9.04647ZM2.55767 12.5133L2.6271 12.5853L2.53644 2.52396C2.53642 2.52398 2.5364 2.524 2.53638 2.52402C2.27361 2.80088 2.28809 3.23562 2.56764 3.49544L2.56769 3.49548L7.32636 7.91325L2.55767 12.5133Z" fill="#1FBCC1" stroke="#1FBCC1" stroke-width="0.2"/>
</svg>
