<svg width="16" height="22" viewBox="0 0 16 22" fill="none" xmlns="http://www.w3.org/2000/svg">
<path d="M8.00008 0C5.88712 0.0274691 3.86848 0.864121 2.37408 2.33167C0.87988 3.79917 0.028 5.78187 0 7.85716C0 14.0132 7.12 21.442 7.42 21.7555C7.57109 21.9116 7.78078 22 8 22C8.21922 22 8.42892 21.9116 8.58 21.7555C8.88 21.442 16 14.0132 16 7.85716C15.972 5.78194 15.1202 3.79937 13.6259 2.33167C12.1317 0.864161 10.113 0.0274998 7.99992 0L8.00008 0ZM8.00008 10.9999C7.15132 10.9999 6.33744 10.6687 5.73728 10.0795C5.13728 9.49001 4.80008 8.69063 4.80008 7.85708C4.80008 7.02352 5.13727 6.22414 5.73728 5.6347C6.33744 5.04542 7.15136 4.71425 8.00008 4.71425C8.8488 4.71425 9.66272 5.04541 10.2629 5.6347C10.8629 6.22414 11.2001 7.02352 11.2001 7.85708C11.2001 8.69063 10.8629 9.49001 10.2629 10.0795C9.66272 10.6687 8.8488 10.9999 8.00008 10.9999Z" fill="#1FBCC1"/>
</svg>
