<svg width="100" height="40" viewBox="0 0 100 40" fill="none" xmlns="http://www.w3.org/2000/svg">
<path fill-rule="evenodd" clip-rule="evenodd" d="M63.4567 0.727621C62.3035 1.00618 60.8654 2.04796 60.0384 3.20398C58.8057 4.92721 58.1798 7.37833 58.4054 9.59956C58.7671 13.1606 60.7984 15.96 63.5257 16.6558C67.6573 17.7098 71.4822 13.5747 71.2589 8.29528C71.153 5.79136 70.3759 3.91068 68.7964 2.33513C67.9112 1.45211 67.0742 0.945415 66.1363 0.724972C65.4723 0.568849 64.1086 0.570257 63.4567 0.727621ZM33.4881 0.924803C33.2866 1.14682 33.3716 1.30708 33.7965 1.50633C33.9998 1.60161 34.2267 1.79143 34.3186 1.94291C34.4763 2.20301 34.4811 2.40309 34.4811 8.66779C34.4811 15.026 34.4785 15.129 34.3111 15.4144C34.2176 15.5737 34.01 15.7663 33.8497 15.8422C33.4037 16.0536 33.3045 16.2086 33.4867 16.4093C33.6268 16.5638 33.7469 16.5733 35.5562 16.5733C37.5025 16.5733 37.6761 16.5477 37.6761 16.2611C37.6761 16.1141 37.5374 15.9886 37.1659 15.7998C36.6735 15.5494 36.6442 15.4183 36.6137 13.3365L36.5863 11.4657L37.7744 11.4149C39.7617 11.33 41.1866 10.8795 42.2819 9.98971C43.1141 9.31372 43.532 8.72392 43.8739 7.74298C44.071 7.17734 44.0997 6.96873 44.0997 6.10161C44.0997 5.23259 44.0711 5.02647 43.8721 4.45504C43.1993 2.52395 41.484 1.24226 39.0906 0.88242C38.5457 0.800468 37.5708 0.763134 35.967 0.762803C33.7553 0.762306 33.6279 0.770667 33.4881 0.924803ZM45.4455 0.916774C45.2326 1.15137 45.3236 1.31759 45.7693 1.50815C46.4688 1.80724 46.4313 1.39888 46.4313 8.70918C46.4313 15.0102 46.4283 15.1298 46.2625 15.4144C46.1696 15.5737 45.9672 15.7677 45.8125 15.8456C45.3736 16.0663 45.2778 16.1912 45.3888 16.398C45.4805 16.569 45.5314 16.5733 47.4614 16.5733C49.1655 16.5733 49.4551 16.5551 49.5491 16.4422C49.6967 16.2648 49.5734 16.0764 49.1825 15.8824C48.9875 15.7855 48.8129 15.6088 48.7061 15.3999C48.5361 15.0676 48.519 14.523 48.5457 10.3027L48.5475 10.0337H49.6613H50.7752L52.1804 12.3722C54.1763 15.6935 54.1413 15.6085 53.672 15.9996C53.4046 16.2224 53.4037 16.2259 53.5603 16.3988C53.7126 16.5669 53.7903 16.5733 55.6844 16.5733C57.545 16.5733 57.6584 16.5644 57.8006 16.4077C57.9427 16.2511 57.9431 16.2336 57.8083 16.0851C57.73 15.9988 57.505 15.8877 57.3084 15.8384C56.904 15.7368 56.413 15.3652 56.0371 14.8763C55.8971 14.6942 55.1793 13.5394 54.4418 12.3101C53.7044 11.0808 53.0256 9.96967 52.9332 9.84087C52.8408 9.71215 52.782 9.58996 52.8026 9.56952C52.8231 9.54899 53.138 9.38848 53.5023 9.21273C54.254 8.85016 55.1315 8.08933 55.4777 7.50018C55.9973 6.61584 56.2273 5.29244 56.0171 4.39693C55.688 2.99463 54.5703 1.85997 52.9703 1.30385C51.7252 0.871079 51.3381 0.827371 48.3809 0.785567C45.6535 0.746992 45.5973 0.749558 45.4455 0.916774ZM66.0138 1.96502C67.1946 2.52221 68.2081 4.05562 68.7028 6.03315C69.0091 7.2583 69.0815 7.90696 69.0798 9.41281C69.0784 10.6913 69.0506 11.0144 68.8842 11.6884C68.4019 13.6421 67.5888 14.8975 66.4457 15.4533C65.575 15.8765 64.4019 15.8221 63.5076 15.3167C63.0412 15.0532 62.1865 14.1947 61.8601 13.6619C60.5288 11.4887 60.112 7.85191 60.8846 5.14964C61.0916 4.42549 61.7082 3.31176 62.2056 2.76351C63.2066 1.66014 64.7029 1.3464 66.0138 1.96502ZM38.4744 1.96377C40.7598 2.35234 41.9915 3.94627 41.9915 6.51551C41.9915 7.87758 41.6642 8.79246 40.9409 9.4518C40.2078 10.1202 39.3111 10.363 37.5724 10.3641L36.5973 10.3648V6.10161V1.83845H37.1673C37.4808 1.83845 38.069 1.89482 38.4744 1.96377ZM51.1467 2.08298C52.435 2.4117 53.3203 3.09827 53.7134 4.0735C53.8681 4.4576 53.8971 4.6908 53.8985 5.56528C53.9001 6.57164 53.8922 6.61783 53.627 7.15532C53.3293 7.75854 52.8992 8.18568 52.2628 8.51018C51.6233 8.83625 50.9382 8.95496 49.6886 8.95628L48.5475 8.95752L48.5419 8.48154C48.5362 8.00092 48.5383 2.38065 48.5442 2.01195L48.5475 1.81303L49.5231 1.86535C50.0596 1.89407 50.7902 1.99209 51.1467 2.08298ZM35.6429 24.0827C34.6561 24.2188 33.6271 24.671 32.8251 25.3211C32.2788 25.764 31.7833 26.3615 31.7852 26.5754C31.7862 26.6901 32.7102 28.2034 32.8869 28.3796C32.9164 28.409 33.0454 28.3898 33.1736 28.3368C33.374 28.2539 33.4203 28.1693 33.5034 27.7328C33.7107 26.6446 34.3408 25.7816 35.2516 25.3388C35.569 25.1844 35.784 25.1478 36.3898 25.145C37.0359 25.142 37.1867 25.1695 37.5069 25.3482C38.1945 25.7321 38.4703 26.3813 38.3984 27.4465C38.3389 28.3286 38.0208 28.9704 37.3198 29.6232C36.5142 30.3734 35.4363 30.8347 34.2357 30.9432C33.6986 30.9918 33.6159 31.0219 33.5352 31.1985C33.3203 31.6688 33.511 31.9704 34.0232 31.9704C34.5852 31.9704 36.0451 32.209 36.5562 32.3844C37.1431 32.5858 37.8864 33.0338 38.2291 33.3925C39.4051 34.6239 39.3647 37.2958 38.1564 38.2055C37.6598 38.5794 37.2677 38.6984 36.5143 38.7039C35.9224 38.7082 35.7331 38.6742 35.3379 38.4928C34.4036 38.0637 33.8253 37.322 33.5345 36.1798C33.4028 35.6625 33.3501 35.5677 33.1584 35.504C33.0358 35.4633 32.9246 35.4431 32.9114 35.4592C32.8981 35.4753 32.6577 35.8316 32.3771 36.2511C31.7267 37.2232 31.7189 37.3704 32.2863 37.9688C33.973 39.7477 36.6684 40.2969 38.7964 39.2952C39.8625 38.7934 40.5316 38.1018 40.9575 37.0613C41.1675 36.5483 41.1951 36.3776 41.1985 35.5713C41.2033 34.4698 41.007 33.8017 40.4619 33.0631C39.9501 32.3697 39.2837 31.9133 38.138 31.472L37.5627 31.2503L38.1569 30.9388C39.7409 30.1086 40.5845 28.7573 40.4769 27.2226C40.3623 25.5862 39.3147 24.4796 37.5651 24.1471C36.9515 24.0305 36.2029 24.0053 35.6429 24.0827ZM72.2944 24.2832C72.2159 24.3123 72.1002 24.398 72.0372 24.4736C71.8992 24.6395 72.0066 24.7758 72.4515 24.9995C72.6062 25.0773 72.8086 25.2714 72.9015 25.4307C73.0672 25.715 73.0703 25.8363 73.0703 31.8876C73.0703 37.766 73.063 38.0694 72.9136 38.3692C72.8173 38.5627 72.6395 38.7436 72.4516 38.8392C71.988 39.0752 71.8937 39.2213 72.0759 39.4221C72.2157 39.5763 72.3359 39.5861 74.0743 39.5861C75.8813 39.5861 75.9269 39.582 76.0508 39.4055C76.2048 39.1861 76.1263 39.066 75.6807 38.8392C75.1339 38.561 75.0933 38.3693 75.0927 36.0632L75.0923 34.0356L75.771 33.1711C76.1442 32.6956 76.4969 32.2674 76.5549 32.2194C76.6354 32.1528 77.0174 32.6429 78.1823 34.3072C79.0195 35.5032 79.8961 36.7426 80.1303 37.0613C80.6287 37.7395 81.0786 38.512 81.0786 38.6896C81.0786 38.7583 80.9842 38.8574 80.8688 38.9099C80.5878 39.0375 80.5288 39.2262 80.708 39.4236C80.8466 39.5763 80.9732 39.5861 82.8213 39.5861C84.6819 39.5861 84.7954 39.5773 84.9375 39.4206C85.0813 39.262 85.0815 39.2481 84.9406 39.0928C84.8597 39.0037 84.6018 38.8676 84.3676 38.7903C83.6353 38.549 83.0321 37.8329 80.3076 33.9697C78.6882 31.6735 77.8602 30.4311 77.9075 30.3687C78.5591 29.5084 80.8492 26.7289 81.2861 26.2681C81.9276 25.5916 82.6929 25.0484 83.1163 24.9692C83.2676 24.9408 83.4569 24.8456 83.5369 24.7574C83.6759 24.604 83.6744 24.5893 83.5017 24.4169C83.3281 24.2439 83.2651 24.2377 81.8886 24.2603C80.6717 24.2803 80.4344 24.305 80.311 24.425C80.1783 24.5539 80.1769 24.5821 80.2949 24.7501C80.366 24.8513 80.478 24.9341 80.5439 24.9341C80.6098 24.9341 80.6637 24.9842 80.6637 25.0455C80.6637 25.1942 80.0582 26.0223 79.0454 27.2589C78.589 27.816 77.9869 28.5547 77.7076 28.9002C75.5898 31.5189 75.18 32.0093 75.1247 31.9909C75.0902 31.9795 75.072 30.5655 75.0842 28.8488C75.1091 25.3273 75.1159 25.2858 75.7119 24.9754C76.1275 24.7591 76.2245 24.5839 76.0275 24.406C75.8994 24.2904 75.6176 24.2669 74.1569 24.2501C73.211 24.2393 72.3729 24.2542 72.2944 24.2832ZM87.7493 24.2509C86.6717 24.2725 86.4759 24.2968 86.3609 24.4235C86.2402 24.5566 86.2396 24.5885 86.3547 24.7524C86.4248 24.8524 86.5497 24.9341 86.6321 24.9341C86.8686 24.9341 87.1924 25.3178 87.2933 25.7177C87.3573 25.9711 87.3857 28.1157 87.3857 32.6978C87.3857 40.2576 87.3113 39.5861 88.1484 39.5861H88.6076L89.9805 37.289C90.7355 36.0256 92.1376 33.6826 93.0962 32.0824C94.0548 30.4821 95.0573 28.8058 95.324 28.3573L95.8089 27.5416L95.8335 32.467C95.8469 35.176 95.8358 37.5812 95.8086 37.8118C95.7461 38.3434 95.5162 38.7225 95.1683 38.8675C94.7471 39.0431 94.6569 39.1933 94.8437 39.4081C94.9904 39.5768 95.0699 39.5861 96.3659 39.5861C97.6237 39.5861 97.7453 39.5729 97.8822 39.4221C98.0643 39.2213 97.97 39.0752 97.5064 38.8392C97.3185 38.7436 97.1408 38.5627 97.0444 38.3692C96.895 38.0694 96.8877 37.766 96.8877 31.8876C96.8877 25.8363 96.8909 25.715 97.0565 25.4307C97.1494 25.2714 97.3519 25.0773 97.5066 24.9995C97.9868 24.7581 98.0567 24.6485 97.874 24.4232C97.7245 24.2389 97.6739 24.2311 96.7217 24.2462C96.174 24.255 95.6861 24.2643 95.6374 24.2669C95.5888 24.2697 95.4625 24.4302 95.3567 24.6236C95.251 24.8171 95.062 25.1431 94.9368 25.348C94.8115 25.5528 93.9328 27.0243 92.984 28.6178C92.0352 30.2113 90.8241 32.2415 90.2926 33.1293C89.7612 34.0171 89.1418 35.0576 88.9162 35.4415L88.506 36.1395L88.4846 30.9378C88.4607 25.118 88.4441 25.2958 89.039 24.9995C89.1952 24.9218 89.3819 24.7984 89.4539 24.7254C89.5734 24.6042 89.5644 24.5748 89.352 24.3908C89.2239 24.2798 89.0932 24.1973 89.0615 24.2074C89.0298 24.2175 88.4393 24.2371 87.7493 24.2509ZM45.9691 24.4029C45.815 24.588 45.9476 24.763 46.4335 25.0155C46.6539 25.1301 46.8706 25.2836 46.9152 25.3566C46.9752 25.4552 46.4748 27.0513 44.9817 31.5238C43.8737 34.8426 42.8921 37.707 42.8004 37.8891C42.5158 38.4544 42.3393 38.6499 41.9479 38.8334C41.5049 39.0411 41.4173 39.1993 41.6208 39.4236C41.755 39.5716 41.8817 39.5861 43.0369 39.5861C44.249 39.5861 44.3114 39.578 44.4332 39.4045C44.549 39.2397 44.5475 39.2082 44.4172 39.0639C44.3382 38.9764 44.1896 38.8728 44.0869 38.8336C43.7939 38.7219 43.8441 38.3803 44.4115 36.6267L44.927 35.0332H47.6866H50.4462L50.9491 36.556C51.2257 37.3937 51.452 38.2127 51.452 38.3762C51.452 38.633 51.4068 38.7019 51.1201 38.8825C50.7673 39.1046 50.7269 39.209 50.9037 39.4412C51.0029 39.5716 51.2 39.5861 52.8783 39.5861C54.7211 39.5861 54.7447 39.5839 54.9235 39.3941L55.1044 39.2019L54.9173 39.0324C54.8143 38.9391 54.6335 38.8401 54.5153 38.8124C54.1841 38.7346 53.9157 38.4833 53.6569 38.0089C53.5267 37.7705 52.473 34.7404 51.3151 31.2754C50.1573 27.8104 49.1511 24.8171 49.0793 24.6236L48.9487 24.2718H47.5135C46.3052 24.2718 46.0609 24.2925 45.9691 24.4029ZM56.1437 24.4343C55.9485 24.6495 56.0252 24.8149 56.4031 24.9938C56.5749 25.0753 56.7896 25.2704 56.8838 25.4307C57.051 25.7157 57.0537 25.8211 57.0537 31.929C57.0537 38.0368 57.051 38.1422 56.8838 38.4272C56.7896 38.5875 56.5749 38.7826 56.4031 38.8641C56.0252 39.0431 55.9485 39.2085 56.1437 39.4236C56.2785 39.5724 56.4049 39.5861 57.6346 39.5861C58.8309 39.5861 58.9933 39.5695 59.1155 39.4347C59.191 39.3514 59.2517 39.249 59.2503 39.2071C59.2469 39.1081 58.9314 38.8815 58.6913 38.8057C58.5879 38.773 58.4198 38.5907 58.3179 38.4005C58.1325 38.0548 58.1325 38.0541 58.1263 33.3569C58.1229 30.7732 58.1418 28.6592 58.1682 28.6592C58.2106 28.6592 58.7157 30.0276 61.5229 37.7481L62.194 39.5939L62.474 39.5693C62.7486 39.5452 62.7593 39.5294 63.0257 38.7583C63.7667 36.6137 64.2247 35.2984 65.3033 32.2187C65.9491 30.3748 66.5604 28.6426 66.6618 28.3694L66.8462 27.8727L66.87 32.8395C66.883 35.5713 66.8726 37.9236 66.847 38.067C66.7845 38.4163 66.5194 38.7366 66.1735 38.8808C65.8232 39.0268 65.7428 39.2105 65.9362 39.4236C66.074 39.5756 66.2003 39.5861 67.8836 39.5861C69.522 39.5861 69.6959 39.5725 69.8209 39.4347C70.0266 39.208 69.992 39.1206 69.613 38.9094C69.423 38.8035 69.1896 38.6118 69.0943 38.4832C68.9228 38.2521 68.9207 38.1845 68.895 32.2333C68.8769 28.06 68.897 26.0874 68.9606 25.7937C69.0552 25.357 69.275 25.0793 69.6057 24.9793C69.895 24.8918 70.0033 24.6241 69.8276 24.4305C69.6969 24.2866 69.5587 24.2718 68.335 24.2718H66.9863L66.8472 24.665C66.7707 24.8813 66.5457 25.5239 66.3471 26.093C64.0702 32.6173 63.0052 35.6225 62.9502 35.6773C62.9004 35.7269 62.8927 35.7072 62.0655 33.419C61.7033 32.4174 61.316 31.3557 61.2048 31.0598C61.0935 30.7638 60.5884 29.3669 60.0822 27.9555C59.5759 26.5441 59.067 25.1379 58.9511 24.8306L58.7404 24.2718H57.5158C56.4042 24.2718 56.2774 24.2868 56.1437 24.4343ZM48.9192 30.4648C49.5458 32.3457 50.0416 33.9015 50.0209 33.9221C50.0003 33.9428 48.9335 33.9498 47.6505 33.9377L45.3177 33.9157L46.4843 30.4098C47.126 28.4816 47.6799 26.9357 47.7154 26.9744C47.7509 27.0132 48.2925 28.5839 48.9192 30.4648Z" fill="#3F3F3F"/>
<path fill-rule="evenodd" clip-rule="evenodd" d="M28.8389 17.7322H74.6888V8.18933C74.6888 7.61242 74.9899 7.07711 75.4835 6.77641L86.2084 0.242672C86.7292 -0.0746286 87.3826 -0.0812125 87.9098 0.225528L99.1766 6.78138C99.6865 7.07808 100 7.62261 100 8.21145V22.3679H95.5187V9.99226L87.4928 5.24369C87.2236 5.08446 86.8876 5.08977 86.6236 5.25744L79.1701 9.99226V22.3679H74.6888H28.8389C28.7754 22.4772 28.7077 22.5837 28.6358 22.6872C29.8879 24.4727 30.6224 26.6459 30.6224 28.9903C30.6224 35.0708 25.6808 40 19.5851 40C13.4893 40 8.54772 35.0708 8.54772 28.9903C8.54772 28.479 8.58266 27.9758 8.65029 27.4831C8.25244 27.5488 7.84392 27.583 7.42739 27.583C3.32535 27.583 0 24.266 0 20.1742C0 16.0824 3.32535 12.7654 7.42739 12.7654C7.8481 12.7654 8.26064 12.8003 8.66226 12.8673C8.58679 12.3475 8.54772 11.816 8.54772 11.2753C8.54772 5.19484 13.4893 0.265614 19.5851 0.265614C25.6808 0.265614 30.6224 5.19484 30.6224 11.2753C30.6224 13.584 29.9101 15.7267 28.6926 17.4966C28.7436 17.5735 28.7924 17.6521 28.8389 17.7322ZM19.5851 4.57017C15.8726 4.57017 12.8631 7.57218 12.8631 11.2753C12.8631 14.9785 15.8726 17.9805 19.5851 17.9805C19.9652 17.9805 20.3381 17.949 20.701 17.8885C21.4799 16.4172 23.0292 15.4143 24.8133 15.4143C24.8334 15.4143 24.8535 15.4145 24.8736 15.4147C25.7715 14.2748 26.3071 12.8375 26.3071 11.2753C26.3071 7.57218 23.2975 4.57017 19.5851 4.57017ZM19.5851 22.2851C20.0011 22.2851 20.4084 22.3228 20.8035 22.395C21.5991 23.7456 23.061 24.6588 24.7387 24.6851C25.7176 25.8499 26.3071 27.3514 26.3071 28.9903C26.3071 32.6934 23.2975 35.6954 19.5851 35.6954C15.8726 35.6954 12.8631 32.6934 12.8631 28.9903C12.8631 25.2871 15.8726 22.2851 19.5851 22.2851ZM4.31535 20.1742C4.31535 18.4598 5.70866 17.0699 7.42739 17.0699C9.14611 17.0699 10.5394 18.4598 10.5394 20.1742C10.5394 21.8886 9.14611 23.2784 7.42739 23.2784C5.70866 23.2784 4.31535 21.8886 4.31535 20.1742ZM83.4025 10.8615H86.473V13.9243H83.4025V10.8615ZM86.473 14.6693H83.4025V17.7322H86.473V14.6693ZM87.9668 10.8615H91.0373V13.9243H87.9668V10.8615ZM91.0373 14.6693H87.9668V17.7322H91.0373V14.6693Z" fill="#1FBCC1"/>
</svg>
