<svg width="36" height="32" viewBox="0 0 36 32" fill="none" xmlns="http://www.w3.org/2000/svg">
<path d="M8.21824 24.3894L8.15028 24.5324H8.30855H26.8951C27.1595 24.5325 27.4138 24.6406 27.6024 24.8342C27.7909 25.0278 27.8983 25.2912 27.9 25.5672C27.8999 26.1431 27.4456 26.6046 26.8982 26.6046H23.3619H23.1664L23.2809 26.7631C23.6807 27.3168 23.9049 27.9957 23.9049 28.6932C23.9049 30.4652 22.5109 31.9 20.8026 31.9C19.0942 31.9 17.7003 30.4652 17.7003 28.6932V28.6931C17.6997 27.9967 17.9188 27.3193 18.324 26.7635L18.4399 26.6046H18.2432H13.215H13.0195L13.134 26.7631C13.5338 27.3168 13.758 27.9957 13.758 28.6932C13.758 30.4652 12.364 31.9 10.6557 31.9C8.94732 31.9 7.55335 30.4652 7.55335 28.6932V28.6931C7.55276 27.9967 7.77189 27.3193 8.17711 26.7635L8.29298 26.6046H8.09631H6.13622C5.7576 26.6046 5.41403 26.3859 5.24291 26.0355L5.24256 26.0348C5.15757 25.8641 5.12043 25.672 5.13556 25.4804C5.15069 25.2887 5.21744 25.1056 5.32793 24.9516L5.32824 24.9518L5.33269 24.9443L7.66732 21.009L7.6869 20.976L7.67938 20.9384L5.86598 11.872L5.86591 11.8717L5.12931 8.25548L5.11301 8.17544H5.03132H1.10177C0.837141 8.17544 0.582673 8.06692 0.394538 7.87265C0.206298 7.67826 0.1 7.41396 0.1 7.13772C0.1 6.86148 0.206298 6.59718 0.394538 6.4028C0.582673 6.20852 0.837141 6.1 1.10177 6.1H5.92398C6.3927 6.1 6.80888 6.445 6.90591 6.92236L6.90596 6.92261L7.0745 7.74125L7.09088 7.82081L7.1721 7.82109L26.8976 7.88877C26.8977 7.88877 26.8977 7.88877 26.8978 7.88877C27.0411 7.88966 27.1827 7.92272 27.3126 7.98579C27.4426 8.04887 27.558 8.14049 27.6507 8.25454C27.8381 8.48616 27.9154 8.79205 27.864 9.08997L25.7167 21.5015C25.631 21.991 25.2213 22.3406 24.7477 22.3406H24.7476L9.24159 22.3696L9.17854 22.3697L9.15147 22.4266L8.21824 24.3894ZM7.6316 9.8643L7.50871 9.86388L7.53328 9.98429L9.62758 20.2496L9.64393 20.3297L9.72574 20.3296L23.8428 20.3038L23.9268 20.3036L23.9411 20.2208L25.7015 10.0426L25.7217 9.92594L25.6033 9.92554L7.6316 9.8643ZM9.56938 28.6932C9.56938 29.3062 10.0544 29.8117 10.6557 29.8117C10.9448 29.8117 11.2215 29.693 11.4249 29.4829C11.6283 29.2729 11.742 28.9888 11.742 28.6932C11.742 28.0802 11.257 27.5747 10.6557 27.5747C10.0544 27.5747 9.56938 28.0802 9.56938 28.6932ZM19.7163 28.6932C19.7163 29.3062 20.2013 29.8117 20.8026 29.8117C21.0917 29.8117 21.3684 29.693 21.5718 29.4829C21.7752 29.2729 21.8889 28.9888 21.8889 28.6932C21.8889 28.0802 21.4039 27.5747 20.8026 27.5747C20.2013 27.5747 19.7163 28.0802 19.7163 28.6932Z" fill="#3F3F3F" fill-opacity="0.65" stroke="white" stroke-width="0.2"/>
<rect x="16.5" y="2.5" width="18" height="13" rx="6.5" fill="#FA7676" stroke="white" stroke-width="3"/>
<path d="M25.112 12.08C24.7173 12.08 24.3307 12.024 23.952 11.912C23.5787 11.7947 23.264 11.6347 23.008 11.432L23.456 10.624C23.6587 10.7893 23.904 10.9227 24.192 11.024C24.48 11.1253 24.7813 11.176 25.096 11.176C25.4693 11.176 25.76 11.1013 25.968 10.952C26.176 10.7973 26.28 10.5893 26.28 10.328C26.28 10.072 26.184 9.86933 25.992 9.72C25.8 9.57067 25.4907 9.496 25.064 9.496H24.552V8.784L26.152 6.88L26.288 7.272H23.28V6.4H27.096V7.096L25.496 9L24.952 8.68H25.264C25.952 8.68 26.4667 8.83467 26.808 9.144C27.1547 9.448 27.328 9.84 27.328 10.32C27.328 10.6347 27.248 10.9253 27.088 11.192C26.928 11.4587 26.6827 11.6747 26.352 11.84C26.0267 12 25.6133 12.08 25.112 12.08Z" fill="white"/>
</svg>
