<svg width="18" height="22" viewBox="0 0 18 22" fill="none" xmlns="http://www.w3.org/2000/svg">
<path fill-rule="evenodd" clip-rule="evenodd" d="M4.24828 7.66687C4.6095 6.69457 6.05405 6.69457 6.9929 6.00009C7.28181 5.79166 7.57071 5.51388 7.57071 5.09718C7.42626 3.70817 6.92057 1.41626 6.41509 0.513425C6.27063 0.235624 6.05387 0.027214 5.62051 0.027214C4.3204 -0.181217 2.00898 0.860623 1.64794 1.34683C-4.05803 8.01411 6.19853 23.7795 14.9381 21.8352C15.5159 21.6963 17.5383 20.0988 17.9716 18.9183C18.0439 18.5709 17.9716 18.2238 17.8272 18.0154C17.177 17.1819 15.227 15.7234 13.999 15.029C13.6378 14.8205 13.2768 14.9594 12.9155 15.0985C11.832 15.6541 11.2542 16.9042 10.1709 16.7653C8.14855 16.4875 3.59822 9.54252 4.24805 7.66714L4.24828 7.66687Z" fill="#1FBCC1"/>
</svg>
