<svg width="33" height="26" viewBox="0 0 33 26" fill="none" xmlns="http://www.w3.org/2000/svg">
<path d="M32.1186 3.07977C31.2242 4.40555 30.127 5.53571 28.8268 6.47025C28.8397 6.72089 28.8461 7.00418 28.8461 7.32011C28.8461 9.07551 28.5893 10.833 28.0756 12.5927C27.562 14.3523 26.7775 16.0366 25.722 17.6456C24.6665 19.2545 23.4092 20.6799 21.9501 21.9217C20.491 23.1636 18.7371 24.1537 16.6884 24.8922C14.6397 25.6307 12.4441 26 10.1015 26C6.44546 26 3.07863 25.0164 0.000976562 23.0492C0.547223 23.1098 1.07112 23.1401 1.57267 23.1401C4.62697 23.1401 7.35496 22.2025 9.75663 20.3275C8.33254 20.3014 7.05716 19.8646 5.93049 19.0168C4.80382 18.1691 4.02847 17.0859 3.60444 15.7671C4.02357 15.8467 4.43722 15.8865 4.84542 15.8865C5.433 15.8865 6.01116 15.8101 6.57991 15.6574C5.06014 15.354 3.79936 14.5997 2.79757 13.3943C1.79582 12.189 1.29494 10.7978 1.29494 9.22073V9.13946C2.22778 9.65419 3.22281 9.92799 4.28001 9.96085C3.37971 9.36271 2.66591 8.58272 2.1386 7.62088C1.61126 6.65903 1.34759 5.61815 1.34759 4.49823C1.34759 3.31709 1.64459 2.21722 2.23858 1.19862C3.8913 3.21981 5.89392 4.83521 8.24644 6.04481C10.599 7.25443 13.1228 7.92622 15.8179 8.06017C15.703 7.58276 15.6454 7.08456 15.6452 6.56557C15.6452 4.75344 16.2887 3.20614 17.5757 1.92369C18.8627 0.641229 20.4154 0 22.2337 0C24.1375 0 25.7411 0.690828 27.0445 2.07248C28.5336 1.77853 29.928 1.24684 31.2275 0.477411C30.7268 2.04764 29.7621 3.25896 28.3333 4.11138C29.6465 3.95586 30.9083 3.61199 32.1186 3.07977H32.1186Z" fill="#1FBCC1"/>
</svg>
